<svg width="210" height="205" viewBox="0 0 210 205" fill="none" xmlns="http://www.w3.org/2000/svg">
<g clip-path="url(#clip0_322_2827)">
<path d="M177.765 43.9309C176.812 43.9309 176.039 43.1569 176.039 42.202C176.039 41.2472 176.812 40.4731 177.765 40.4731C178.718 40.4731 179.491 41.2472 179.491 42.202C179.491 43.1497 178.718 43.9309 177.765 43.9309ZM177.765 41.3918C177.324 41.3918 176.963 41.7535 176.963 42.1948C176.963 42.6361 177.324 42.9978 177.765 42.9978C178.205 42.9978 178.567 42.6361 178.567 42.1948C178.567 41.7535 178.205 41.3918 177.765 41.3918Z" fill="#DEDEDE"/>
<path d="M144.885 92.9477C144.835 92.8536 144.748 92.7885 144.64 92.7668C144.539 92.7379 144.43 92.7523 144.336 92.8102L143.022 93.5915L142.242 92.2749C142.192 92.1809 142.105 92.1158 141.997 92.0941C141.896 92.0651 141.787 92.0796 141.693 92.1375C141.6 92.1881 141.535 92.2749 141.513 92.3834C141.484 92.4847 141.498 92.5932 141.556 92.6872L142.336 94.0038L141.022 94.785C140.928 94.8357 140.863 94.9225 140.841 95.031C140.82 95.1395 140.827 95.2408 140.885 95.3348C140.935 95.4289 141.022 95.494 141.13 95.5157C141.231 95.5446 141.34 95.5301 141.433 95.4723L142.748 94.691L143.528 96.0076C143.614 96.1595 143.788 96.2246 143.947 96.1956C143.99 96.1884 144.033 96.174 144.069 96.145C144.257 96.0365 144.322 95.7906 144.207 95.6025L143.427 94.2859L144.741 93.5047C144.936 93.3817 145.001 93.1357 144.885 92.9477Z" fill="#DEDEDE"/>
<path d="M148.222 101.679C147.269 101.679 146.496 100.905 146.496 99.9501C146.496 98.9952 147.269 98.2212 148.222 98.2212C149.175 98.2212 149.948 98.9952 149.948 99.9501C149.948 100.898 149.175 101.679 148.222 101.679ZM148.222 99.1399C147.782 99.1399 147.42 99.5016 147.42 99.9429C147.42 100.384 147.782 100.746 148.222 100.746C148.663 100.746 149.024 100.384 149.024 99.9429C149.031 99.5016 148.67 99.1399 148.222 99.1399Z" fill="#DEDEDE"/>
<path d="M202.252 156.475C202.158 156.519 202.086 156.606 202.05 156.7C202.014 156.801 202.021 156.909 202.072 157.003L202.743 158.378L201.371 159.051C201.277 159.094 201.205 159.181 201.169 159.275C201.133 159.376 201.14 159.485 201.191 159.579C201.234 159.673 201.321 159.745 201.415 159.781C201.516 159.817 201.624 159.81 201.718 159.76L203.09 159.087L203.762 160.461C203.805 160.555 203.892 160.628 203.985 160.664C204.087 160.7 204.195 160.693 204.289 160.642C204.383 160.599 204.455 160.512 204.491 160.418C204.527 160.317 204.52 160.208 204.469 160.114L203.798 158.74L205.17 158.067C205.321 157.994 205.408 157.828 205.386 157.662C205.379 157.618 205.372 157.575 205.35 157.532C205.256 157.336 205.018 157.249 204.823 157.351L203.451 158.023L202.779 156.649C202.686 156.468 202.447 156.381 202.252 156.475Z" fill="#DEDEDE"/>
<path d="M166.347 190.446C165.394 190.446 164.621 189.672 164.621 188.717C164.621 187.762 165.394 186.988 166.347 186.988C167.3 186.988 168.073 187.762 168.073 188.717C168.073 189.672 167.293 190.446 166.347 190.446ZM166.347 187.907C165.907 187.907 165.545 188.268 165.545 188.709C165.545 189.151 165.907 189.512 166.347 189.512C166.788 189.512 167.149 189.151 167.149 188.709C167.149 188.268 166.788 187.907 166.347 187.907Z" fill="#DEDEDE"/>
<path d="M0.282544 176.838C0.203108 176.911 0.159779 177.005 0.152558 177.113C0.145336 177.222 0.181443 177.323 0.253658 177.403L1.27188 178.546L0.130893 179.566C0.0514571 179.638 0.00812836 179.732 0.000906906 179.84C-0.00631455 179.949 0.0297927 180.05 0.102007 180.13C0.174222 180.209 0.268101 180.253 0.376423 180.26C0.484745 180.267 0.585845 180.231 0.665281 180.159L1.80627 179.139L2.8245 180.282C2.89671 180.361 2.99059 180.405 3.09891 180.412C3.20723 180.419 3.30834 180.383 3.38777 180.311C3.46721 180.238 3.51054 180.144 3.51776 180.036C3.52498 179.927 3.48887 179.826 3.41666 179.746L2.39843 178.603L3.53942 177.583C3.66941 177.468 3.70552 177.287 3.64052 177.135C3.62608 177.092 3.59719 177.055 3.56831 177.019C3.42388 176.853 3.17113 176.846 3.00503 176.99L1.86404 178.01L0.845818 176.867C0.694167 176.701 0.441416 176.686 0.282544 176.838Z" fill="#DEDEDE"/>
<path d="M33.9056 205C32.9524 205 32.1797 204.226 32.1797 203.271C32.1797 202.316 32.9524 201.542 33.9056 201.542C34.8588 201.542 35.6315 202.316 35.6315 203.271C35.6315 204.226 34.8588 205 33.9056 205ZM33.9056 202.461C33.4651 202.461 33.104 202.822 33.104 203.264C33.104 203.705 33.4651 204.067 33.9056 204.067C34.3461 204.067 34.7072 203.705 34.7072 203.264C34.7144 202.822 34.3533 202.461 33.9056 202.461Z" fill="#DEDEDE"/>
<path d="M2.64361 71.9333C2.56417 72.0056 2.52084 72.1069 2.52084 72.2082C2.52084 72.3167 2.55695 72.418 2.62916 72.4903L3.67628 73.6043L2.56417 74.6532C2.48473 74.7255 2.44141 74.8268 2.44141 74.9281C2.44141 75.0366 2.47751 75.1379 2.54973 75.2102C2.62194 75.2898 2.72304 75.3332 2.82414 75.3332C2.93247 75.3332 3.03357 75.297 3.10578 75.2247L4.21789 74.1758L5.265 75.2898C5.33721 75.3694 5.43831 75.4128 5.53941 75.4128C5.64773 75.4128 5.74883 75.3766 5.82105 75.3043C5.90049 75.2319 5.94381 75.1306 5.94381 75.0294C5.94381 74.9209 5.90771 74.8196 5.83549 74.7473L4.78838 73.6332L5.90048 72.5843C6.02325 72.4686 6.05936 72.2877 5.99436 72.1358C5.97992 72.0924 5.95103 72.0563 5.92215 72.0273C5.7705 71.8682 5.51775 71.8609 5.35888 72.0129L4.24677 73.0618L3.19966 71.9478C3.04801 71.7886 2.80248 71.7814 2.64361 71.9333Z" fill="#DEDEDE"/>
<path d="M14.1908 84.0066C13.2375 84.0066 12.4648 83.2326 12.4648 82.2777C12.4648 81.3228 13.2375 80.5488 14.1908 80.5488C15.144 80.5488 15.9167 81.3228 15.9167 82.2777C15.9167 83.2326 15.144 84.0066 14.1908 84.0066ZM14.1908 81.4748C13.7503 81.4748 13.3892 81.8365 13.3892 82.2777C13.3892 82.719 13.7503 83.0807 14.1908 83.0807C14.6313 83.0807 14.9924 82.719 14.9924 82.2777C14.9924 81.8365 14.6313 81.4748 14.1908 81.4748Z" fill="#DEDEDE"/>
<path d="M207.371 86.4589C207.263 86.4734 207.176 86.5313 207.111 86.6109C207.046 86.6977 207.025 86.7989 207.039 86.9074L207.256 88.4193L205.747 88.6363C205.638 88.6508 205.552 88.7087 205.487 88.7882C205.422 88.8751 205.4 88.9763 205.414 89.0848C205.429 89.1933 205.487 89.2801 205.566 89.3453C205.653 89.4104 205.754 89.4321 205.862 89.4176L207.371 89.2006L207.588 90.7125C207.603 90.821 207.66 90.9078 207.74 90.9729C207.826 91.038 207.927 91.0597 208.036 91.0452C208.144 91.0307 208.231 90.9729 208.296 90.8933C208.361 90.8065 208.382 90.7052 208.368 90.5967L208.151 89.0848L209.661 88.8678C209.834 88.8461 209.964 88.7087 209.993 88.5495C210 88.5061 210 88.4627 209.993 88.4193C209.964 88.2023 209.762 88.0504 209.545 88.0866L208.036 88.3036L207.819 86.7917C207.783 86.5747 207.588 86.4228 207.371 86.4589Z" fill="#DEDEDE"/>
<path d="M84.5861 16.4641C84.4778 16.4496 84.3767 16.4858 84.2973 16.5509C84.2178 16.616 84.1601 16.7101 84.1528 16.8186L83.994 18.3377L82.4775 18.1785C82.3691 18.1641 82.268 18.2002 82.1886 18.2653C82.1092 18.3304 82.0514 18.4245 82.0442 18.533C82.0297 18.6415 82.0658 18.7428 82.1308 18.8223C82.1958 18.9019 82.2897 18.9598 82.398 18.967L83.9145 19.1262L83.7557 20.6453C83.7412 20.7538 83.7773 20.855 83.8423 20.9346C83.9073 21.0142 84.0012 21.0721 84.1095 21.0793C84.2178 21.0938 84.3189 21.0576 84.3984 20.9925C84.4778 20.9274 84.5356 20.8333 84.5428 20.7248L84.7017 19.2057L86.2182 19.3649C86.3915 19.3866 86.5504 19.2853 86.6154 19.1406C86.637 19.1045 86.6442 19.0611 86.6515 19.0104C86.6731 18.7934 86.5143 18.5981 86.2976 18.5764L84.7811 18.4172L84.94 16.8981C84.9616 16.6811 84.8028 16.4858 84.5861 16.4641Z" fill="#DEDEDE"/>
<path d="M168.758 0C164.794 0 161.58 3.21906 161.58 7.18321V73.5755C161.58 78.7838 157.363 83.0084 152.163 83.0084H105.404V8.9121C105.404 3.99308 109.391 0 114.301 0H168.758Z" fill="#F2F2F2"/>
<path d="M152.164 83.0082H128.398V43.0122C128.398 39.0408 131.612 35.8218 135.577 35.8218C137.555 35.8218 139.353 36.6247 140.653 37.9268C141.953 39.2289 142.755 41.0229 142.755 43.0122V73.5752C142.747 78.7908 146.965 83.0082 152.164 83.0082Z" fill="#DEDEDE"/>
<path d="M135.575 35.829C131.611 35.829 128.397 39.0481 128.397 43.0195V176.831C128.397 179.291 127.401 181.519 125.79 183.132C124.18 184.745 121.956 185.743 119.5 185.743H50.4632C45.5526 185.743 41.5664 181.757 41.5664 176.831V44.7339C41.5664 39.8149 45.5454 35.8218 50.4632 35.8218H135.575V35.829Z" fill="#F2F2F2"/>
<path d="M119.509 185.736H30.3382C25.4276 185.736 21.4414 181.751 21.4414 176.824V171.363H110.612V176.824C110.612 181.751 114.591 185.736 119.509 185.736Z" fill="#DEDEDE"/>
<path d="M63.8878 119.257V115.785H54.536C53.3589 115.785 52.4706 115.517 51.8785 114.982C51.2863 114.447 50.9902 113.716 50.9902 112.797C50.9902 112.559 51.0336 112.32 51.1202 112.081C51.2069 111.835 51.3369 111.582 51.5102 111.314C51.6835 111.047 51.864 110.786 52.0518 110.54C52.2395 110.294 52.4706 109.991 52.7378 109.629L62.6096 96.3982C63.2523 95.5301 63.7867 94.8936 64.2055 94.5029C64.6244 94.1123 65.1226 93.917 65.7076 93.917C67.5924 93.917 68.5384 95.0021 68.5384 97.165V111.604H69.34C70.2932 111.604 71.0659 111.734 71.6436 111.994C72.2213 112.255 72.5102 112.826 72.5102 113.709C72.5102 114.432 72.2719 114.953 71.8025 115.286C71.3331 115.619 70.6254 115.778 69.6794 115.778H68.5456V119.25C68.5456 120.205 68.3362 120.921 67.9101 121.384C67.4913 121.847 66.9208 122.086 66.2131 122.086C65.5198 122.086 64.9565 121.847 64.5305 121.369C64.1044 120.892 63.8878 120.19 63.8878 119.257ZM55.8792 111.604H63.8878V100.767L55.8792 111.604Z" fill="#4ABC96"/>
<path d="M94.066 108.211C94.066 110.251 93.9433 112.001 93.6905 113.47C93.445 114.938 92.9828 116.269 92.3112 117.463C91.4663 118.931 90.3758 120.06 89.0327 120.856C87.6895 121.651 86.2018 122.049 84.5626 122.049C82.6778 122.049 80.9807 121.514 79.4859 120.443C77.991 119.373 76.8645 117.897 76.1062 116.002C75.7235 114.967 75.4419 113.832 75.2613 112.58C75.0808 111.329 74.9941 109.976 74.9941 108.522C74.9941 106.641 75.0952 104.956 75.2902 103.444C75.4852 101.939 75.7957 100.644 76.2218 99.5665C76.9512 97.7725 78.0199 96.4125 79.4137 95.4721C80.8074 94.5317 82.4756 94.0615 84.4181 94.0615C85.6963 94.0615 86.859 94.2713 87.8989 94.6836C88.9388 95.1032 89.8559 95.7108 90.643 96.5138C91.4302 97.3168 92.1018 98.3078 92.6434 99.4869C93.5894 101.549 94.066 104.449 94.066 108.211ZM88.9604 107.835C88.9604 105.556 88.8232 103.697 88.5488 102.25C88.2744 100.803 87.8195 99.7039 87.1695 98.9661C86.5268 98.2282 85.6314 97.8593 84.4904 97.8593C82.8511 97.8593 81.7101 98.684 81.0746 100.341C80.4319 101.997 80.1142 104.543 80.1142 107.994C80.1142 110.33 80.2514 112.247 80.5258 113.738C80.8002 115.228 81.2551 116.356 81.9051 117.123C82.5478 117.89 83.4288 118.273 84.5337 118.273C85.6747 118.273 86.5701 117.875 87.2128 117.08C87.8556 116.284 88.3105 115.148 88.5705 113.665C88.8305 112.175 88.9604 110.236 88.9604 107.835Z" fill="#4ABC96"/>
<path d="M109.224 119.257V115.785H99.8719C98.6948 115.785 97.8066 115.517 97.2144 114.982C96.6222 114.447 96.3262 113.716 96.3262 112.797C96.3262 112.559 96.3695 112.32 96.4562 112.081C96.5428 111.835 96.6728 111.582 96.8461 111.314C97.0194 111.047 97.2 110.786 97.3877 110.54C97.5755 110.294 97.8066 109.991 98.0738 109.629L107.945 96.3982C108.588 95.5301 109.123 94.8936 109.541 94.5029C109.96 94.1123 110.459 93.917 111.044 93.917C112.928 93.917 113.874 95.0021 113.874 97.165V111.604H114.676C115.629 111.604 116.402 111.734 116.98 111.994C117.557 112.255 117.846 112.826 117.846 113.709C117.846 114.432 117.608 114.953 117.138 115.286C116.669 115.619 115.961 115.778 115.015 115.778H113.882V119.25C113.882 120.205 113.672 120.921 113.246 121.384C112.827 121.847 112.257 122.086 111.549 122.086C110.856 122.086 110.292 121.847 109.866 121.369C109.44 120.892 109.224 120.19 109.224 119.257ZM101.215 111.604H109.224V100.767L101.215 111.604Z" fill="#4ABC96"/>
<path d="M105.404 36.0825H135.576" stroke="#DEDEDE" stroke-miterlimit="10"/>
<path d="M168.571 168.469C167.25 169.793 165.105 169.793 163.783 168.469L143.246 147.889L140.639 145.277C142.538 144.019 144.17 142.391 145.419 140.481L168.571 163.673C169.893 164.997 169.893 167.145 168.571 168.469Z" fill="#9C9C9C"/>
<path d="M146.458 141.523L151.809 146.883C150.553 148.786 148.928 150.421 147.029 151.679L144.285 148.93L141.678 146.319C143.577 145.06 145.202 143.425 146.458 141.523Z" fill="#5E5E5E"/>
<path d="M151.796 130.361C151.76 129.493 151.666 128.639 151.529 127.8C150.727 123.04 148.279 118.845 144.798 115.814C141.217 112.689 136.537 110.801 131.41 110.801C120.137 110.801 111.002 119.952 111.002 131.244C111.002 132.025 111.045 132.799 111.132 133.558C111.399 135.938 112.071 138.188 113.082 140.25C114.533 143.208 116.678 145.769 119.307 147.708C119.733 148.026 120.173 148.323 120.628 148.605C123.755 150.558 127.452 151.686 131.41 151.686C135.822 151.686 139.909 150.283 143.246 147.896C145.094 146.579 146.712 144.952 148.026 143.107C149.348 141.248 150.373 139.157 151.016 136.908C151.529 135.114 151.81 133.211 151.81 131.251C151.81 130.947 151.803 130.65 151.796 130.361ZM131.41 148.041C127.741 148.041 124.347 146.862 121.581 144.858C118.902 142.912 116.815 140.192 115.653 137.031C114.988 135.229 114.634 133.276 114.634 131.244C114.634 130.477 114.685 129.725 114.786 128.987C115.624 122.758 119.863 117.608 125.575 115.481C127.395 114.808 129.359 114.439 131.41 114.439C132.154 114.439 132.883 114.49 133.598 114.584C136.999 115.025 140.083 116.494 142.524 118.657C145.997 121.738 148.185 126.231 148.185 131.244C148.185 131.497 148.178 131.757 148.171 132.01C148.113 133.247 147.925 134.441 147.622 135.591C147.153 137.356 146.402 139.006 145.427 140.488C144.17 142.391 142.545 144.026 140.646 145.285C140.177 145.596 139.7 145.878 139.202 146.138C138.14 146.695 137.006 147.144 135.829 147.462C134.414 147.838 132.934 148.041 131.41 148.041Z" fill="#B8B8B8"/>
<path d="M118.708 133.088C117.841 133.088 117.141 132.387 117.141 131.519C117.141 127.627 118.657 123.967 121.401 121.218C124.145 118.469 127.799 116.95 131.685 116.95C132.551 116.95 133.252 117.651 133.252 118.519C133.252 119.388 132.551 120.089 131.685 120.089C128.637 120.089 125.77 121.276 123.611 123.438C121.452 125.601 120.268 128.466 120.268 131.526C120.275 132.387 119.567 133.088 118.708 133.088Z" fill="white"/>
</g>
<defs>
<clipPath id="clip0_322_2827">
<rect width="210" height="205" fill="white"/>
</clipPath>
</defs>
</svg>
