<svg width="17" height="17" viewBox="0 0 17 17" fill="none" xmlns="http://www.w3.org/2000/svg">
<path fill-rule="evenodd" clip-rule="evenodd" d="M7.4375 2.65621C6.80962 2.65621 6.18788 2.77988 5.60779 3.02016C5.02771 3.26044 4.50063 3.61263 4.05665 4.05661C3.61267 4.50059 3.26048 5.02767 3.0202 5.60776C2.77992 6.18784 2.65625 6.80958 2.65625 7.43746C2.65625 8.06534 2.77992 8.68708 3.0202 9.26717C3.26048 9.84725 3.61267 10.3743 4.05665 10.8183C4.50063 11.2623 5.02771 11.6145 5.60779 11.8548C6.18788 12.095 6.80962 12.2187 7.4375 12.2187C8.70557 12.2187 9.9217 11.715 10.8184 10.8183C11.715 9.92166 12.2188 8.70553 12.2188 7.43746C12.2188 6.1694 11.715 4.95327 10.8184 4.05661C9.9217 3.15995 8.70557 2.65621 7.4375 2.65621ZM1.59375 7.43746C1.59387 6.49899 1.82002 5.57435 2.25306 4.74176C2.6861 3.90916 3.31329 3.19311 4.08158 2.65417C4.84988 2.11523 5.73667 1.76925 6.66695 1.64551C7.59723 1.52176 8.54363 1.62389 9.42609 1.94324C10.3086 2.2626 11.1011 2.78979 11.7368 3.48023C12.3724 4.17067 12.8324 5.00404 13.0778 5.90984C13.3233 6.81565 13.347 7.76725 13.1469 8.68414C12.9468 9.60104 12.5288 10.4563 11.9283 11.1775L15.2504 14.4995C15.3026 14.5482 15.3445 14.6068 15.3735 14.672C15.4025 14.7372 15.4182 14.8075 15.4194 14.8788C15.4207 14.9502 15.4076 15.021 15.3808 15.0872C15.3541 15.1533 15.3143 15.2134 15.2639 15.2639C15.2135 15.3143 15.1534 15.3541 15.0872 15.3808C15.0211 15.4075 14.9502 15.4206 14.8789 15.4194C14.8075 15.4181 14.7372 15.4025 14.672 15.3735C14.6069 15.3444 14.5482 15.3026 14.4996 15.2504L11.1775 11.9283C10.3241 12.6391 9.28584 13.092 8.18431 13.2339C7.08278 13.3759 5.96361 13.201 4.95792 12.7297C3.95222 12.2584 3.10164 11.5104 2.50582 10.5731C1.91001 9.63577 1.59363 8.5481 1.59375 7.43746Z" fill="white"/>
</svg>
