<svg width="22" height="22" viewBox="0 0 22 22" fill="none" xmlns="http://www.w3.org/2000/svg">
<path d="M13.7499 17.534C14.5318 17.761 15.342 17.8758 16.1562 17.875C17.4656 17.8769 18.7579 17.5783 19.9338 17.0023C19.9685 16.1807 19.7345 15.3702 19.2672 14.6935C18.7998 14.0169 18.1246 13.5111 17.3439 13.2527C16.5632 12.9943 15.7196 12.9975 14.9408 13.2618C14.1621 13.526 13.4908 14.0369 13.0285 14.7171M13.7499 17.534V17.5312C13.7499 16.511 13.4878 15.5512 13.0285 14.7171M13.7499 17.534V17.6312C11.9858 18.6937 9.96467 19.2535 7.90527 19.25C5.76852 19.25 3.76927 18.6587 2.06244 17.6312L2.06152 17.5312C2.06082 16.2337 2.492 14.9728 3.28709 13.9473C4.08218 12.9219 5.19595 12.1902 6.45281 11.8677C7.70966 11.5452 9.03811 11.6502 10.2287 12.1661C11.4193 12.682 12.4044 13.5795 13.0285 14.7171M10.9999 5.84375C10.9999 6.66426 10.674 7.45117 10.0938 8.03136C9.51361 8.61155 8.7267 8.9375 7.90619 8.9375C7.08568 8.9375 6.29877 8.61155 5.71858 8.03136C5.13839 7.45117 4.81244 6.66426 4.81244 5.84375C4.81244 5.02324 5.13839 4.23633 5.71858 3.65614C6.29877 3.07595 7.08568 2.75 7.90619 2.75C8.7267 2.75 9.51361 3.07595 10.0938 3.65614C10.674 4.23633 10.9999 5.02324 10.9999 5.84375ZM18.5624 7.90625C18.5624 8.54443 18.3089 9.15647 17.8577 9.60773C17.4064 10.059 16.7944 10.3125 16.1562 10.3125C15.518 10.3125 14.906 10.059 14.4547 9.60773C14.0035 9.15647 13.7499 8.54443 13.7499 7.90625C13.7499 7.26807 14.0035 6.65603 14.4547 6.20477C14.906 5.75351 15.518 5.5 16.1562 5.5C16.7944 5.5 17.4064 5.75351 17.8577 6.20477C18.3089 6.65603 18.5624 7.26807 18.5624 7.90625Z" stroke="#9E9E9E" stroke-width="1.5" stroke-linecap="round" stroke-linejoin="round"/>
</svg>
