<svg width="34" height="34" viewBox="0 0 34 34" fill="none" xmlns="http://www.w3.org/2000/svg">
<path d="M12.2187 17C12.2187 17.1409 12.1628 17.276 12.0632 17.3757C11.9635 17.4753 11.8284 17.5312 11.6875 17.5312C11.5466 17.5312 11.4115 17.4753 11.3118 17.3757C11.2122 17.276 11.1562 17.1409 11.1562 17C11.1562 16.8591 11.2122 16.724 11.3118 16.6243C11.4115 16.5247 11.5466 16.4687 11.6875 16.4687C11.8284 16.4687 11.9635 16.5247 12.0632 16.6243C12.1628 16.724 12.2187 16.8591 12.2187 17ZM12.2187 17H11.6875M17.5312 17C17.5312 17.1409 17.4753 17.276 17.3757 17.3757C17.276 17.4753 17.1409 17.5312 17 17.5312C16.8591 17.5312 16.724 17.4753 16.6243 17.3757C16.5247 17.276 16.4687 17.1409 16.4687 17C16.4687 16.8591 16.5247 16.724 16.6243 16.6243C16.724 16.5247 16.8591 16.4687 17 16.4687C17.1409 16.4687 17.276 16.5247 17.3757 16.6243C17.4753 16.724 17.5312 16.8591 17.5312 17ZM17.5312 17H17M22.8437 17C22.8437 17.1409 22.7878 17.276 22.6882 17.3757C22.5885 17.4753 22.4534 17.5312 22.3125 17.5312C22.1716 17.5312 22.0365 17.4753 21.9368 17.3757C21.8372 17.276 21.7812 17.1409 21.7812 17C21.7812 16.8591 21.8372 16.724 21.9368 16.6243C22.0365 16.5247 22.1716 16.4687 22.3125 16.4687C22.4534 16.4687 22.5885 16.5247 22.6882 16.6243C22.7878 16.724 22.8437 16.8591 22.8437 17ZM22.8437 17H22.3125M29.75 17C29.75 23.4543 24.0408 28.6875 17 28.6875C15.7777 28.689 14.5606 28.5284 13.3804 28.2101C11.7169 29.38 9.68763 29.9116 7.66417 29.7075C7.43919 29.6858 7.21518 29.6551 6.99267 29.6154C7.69089 28.7925 8.16775 27.8052 8.37817 26.7467C8.50567 26.0992 8.18975 25.4702 7.71658 25.0098C5.5675 22.9188 4.25 20.1011 4.25 17C4.25 10.5457 9.95917 5.3125 17 5.3125C24.0408 5.3125 29.75 10.5457 29.75 17Z" stroke="#6B7280" stroke-width="1.5" stroke-linecap="round" stroke-linejoin="round"/>
</svg>
