<svg width="34" height="7" viewBox="0 0 34 7" fill="none" xmlns="http://www.w3.org/2000/svg">
<g clip-path="url(#clip0_215_232)">
<path d="M3.19 6.38C4.95179 6.38 6.38 4.95179 6.38 3.19C6.38 1.42821 4.95179 0 3.19 0C1.42821 0 0 1.42821 0 3.19C0 4.95179 1.42821 6.38 3.19 6.38Z" fill="#A3A3A3"/>
<path d="M16.8795 6.38C18.6412 6.38 20.0695 4.95179 20.0695 3.19C20.0695 1.42821 18.6412 0 16.8795 0C15.1177 0 13.6895 1.42821 13.6895 3.19C13.6895 4.95179 15.1177 6.38 16.8795 6.38Z" fill="#A3A3A3"/>
<path d="M30.5709 6.38C32.3326 6.38 33.7609 4.95179 33.7609 3.19C33.7609 1.42821 32.3326 0 30.5709 0C28.8091 0 27.3809 1.42821 27.3809 3.19C27.3809 4.95179 28.8091 6.38 30.5709 6.38Z" fill="#A3A3A3"/>
</g>
<defs>
<clipPath id="clip0_215_232">
<rect width="33.77" height="6.39" fill="white"/>
</clipPath>
</defs>
</svg>
