<svg width="46" height="46" viewBox="0 0 46 46" fill="none" xmlns="http://www.w3.org/2000/svg">
<path d="M21.01 23.67C19.74 24.77 19.33 26.04 19.31 27.54C19.26 30.48 19.6 33.34 20.77 36.06C22.24 39.47 24.52 42.2 27.61 44.24C28 44.5 28.39 44.76 28.78 45.03C28.8 45.04 28.81 45.08 28.85 45.17C28.66 45.17 28.5 45.17 28.35 45.17C20.79 45.17 13.22 45.17 5.66 45.17C2.29 45.17 0 42.88 0 39.5C0 28.23 0 16.95 0 5.68C0 2.3 2.28 0 5.64 0C11.01 0 16.37 0 21.74 0C21.99 0 22.23 0 22.54 0C22.54 0.25 22.54 0.43 22.54 0.61C22.54 3.2 22.54 5.79 22.54 8.37C22.54 11.67 24.84 13.98 28.14 13.99C30.71 14 33.27 13.99 35.84 13.99C36.02 13.99 36.2 13.99 36.44 13.99C36.44 15.88 36.44 17.72 36.44 19.62C36.22 19.49 35.99 19.37 35.77 19.24C34.08 18.17 32.42 18.22 30.71 19.26C29.51 19.99 28.26 20.64 27.01 21.29C26.73 21.44 26.38 21.51 26.05 21.51C20.01 21.52 13.98 21.52 7.94 21.52C7.71 21.52 7.47 21.53 7.24 21.58C6.75 21.69 6.43 22.11 6.43 22.6C6.43 23.09 6.74 23.51 7.23 23.63C7.46 23.68 7.69 23.69 7.93 23.69C12.06 23.69 16.18 23.69 20.31 23.69C20.5 23.67 20.68 23.67 21.01 23.67ZM15.07 15.05C12.61 15.05 10.14 15.04 7.68 15.05C6.92 15.05 6.44 15.5 6.45 16.15C6.46 16.78 6.93 17.19 7.67 17.21C7.8 17.21 7.94 17.21 8.07 17.21C12.46 17.21 16.86 17.21 21.25 17.21C21.67 17.21 22.09 17.22 22.51 17.2C23.12 17.17 23.51 16.82 23.6 16.28C23.72 15.57 23.18 15.04 22.32 15.04C19.9 15.05 17.49 15.05 15.07 15.05ZM12.88 36.58C14.52 36.58 16.16 36.58 17.8 36.58C17.95 36.58 18.1 36.59 18.25 36.57C18.88 36.51 19.31 36.09 19.32 35.51C19.33 34.91 18.89 34.47 18.24 34.42C18.12 34.41 18.01 34.41 17.89 34.41C14.56 34.41 11.22 34.41 7.89 34.41C7.76 34.41 7.62 34.4 7.49 34.42C6.87 34.49 6.45 34.93 6.45 35.5C6.46 36.08 6.88 36.51 7.51 36.57C7.66 36.58 7.81 36.58 7.96 36.58C9.6 36.58 11.24 36.58 12.88 36.58ZM11.77 8.6C10.5 8.6 9.22 8.6 7.95 8.6C7.82 8.6 7.68 8.59 7.55 8.6C6.89 8.65 6.45 9.08 6.44 9.67C6.44 10.27 6.88 10.72 7.53 10.75C8.03 10.78 8.54 10.76 9.04 10.76C11.22 10.76 13.4 10.76 15.58 10.76C15.7 10.76 15.81 10.76 15.93 10.76C16.68 10.74 17.18 10.3 17.17 9.66C17.16 9.04 16.68 8.61 15.94 8.6C14.56 8.59 13.17 8.6 11.77 8.6ZM11.84 27.96C10.43 27.96 9.02 27.95 7.62 27.96C6.92 27.97 6.46 28.4 6.45 29.01C6.44 29.64 6.91 30.09 7.63 30.11C8.08 30.12 8.54 30.11 8.99 30.11C11.29 30.11 13.58 30.11 15.88 30.11C16.4 30.11 16.85 29.97 17.08 29.46C17.42 28.71 16.88 27.96 15.97 27.94C14.59 27.94 13.22 27.96 11.84 27.96Z" fill="#0487D9"/>
<path d="M21.4595 28.78C21.4595 28.26 21.4495 27.74 21.4595 27.22C21.4795 26.09 22.0595 25.31 23.1495 25C26.2495 24.12 29.1695 22.85 31.8695 21.09C32.8295 20.47 33.7295 20.48 34.6795 21.09C37.0395 22.59 39.5095 23.84 42.1895 24.65C42.6395 24.79 43.0995 24.89 43.5395 25.04C44.4295 25.34 45.0095 25.97 45.0595 26.91C45.2295 29.96 44.9095 32.94 43.5795 35.75C42.2995 38.43 40.4595 40.63 37.9995 42.3C36.8895 43.05 35.7695 43.79 34.6595 44.54C33.7095 45.18 32.7995 45.16 31.8595 44.51C30.8095 43.79 29.7295 43.11 28.6795 42.38C23.9395 39.1 21.5995 34.52 21.4595 28.78ZM32.1695 32.89C31.7495 32.46 31.3495 32.04 30.9395 31.63C30.3895 31.08 29.7595 31.04 29.2995 31.5C28.8395 31.96 28.8795 32.6 29.4095 33.15C29.9995 33.75 30.5895 34.34 31.1895 34.93C31.9395 35.68 32.4495 35.69 33.1995 34.95C34.4895 33.66 35.7795 32.36 37.0795 31.07C37.1895 30.96 37.2995 30.86 37.3795 30.73C37.6795 30.3 37.6095 29.71 37.2495 29.35C36.8695 28.98 36.2995 28.93 35.8695 29.26C35.6195 29.46 35.4095 29.7 35.1795 29.92C34.1895 30.9 33.1995 31.87 32.1695 32.89Z" fill="#0487D9"/>
<path d="M35.6297 11.79C35.3297 11.8 35.1697 11.82 35.0097 11.82C32.7297 11.82 30.4497 11.82 28.1697 11.82C26.0197 11.82 24.6797 10.48 24.6797 8.34C24.6797 5.85 24.6797 3.37 24.6797 0.809998C24.8297 0.889998 24.9597 0.919998 25.0497 0.989998C25.3397 1.22 25.6297 1.45 25.8897 1.71C28.8797 4.77 31.8697 7.83 34.8597 10.9C35.0997 11.15 35.3097 11.42 35.6297 11.79Z" fill="#0487D9"/>
</svg>
