<svg width="29" height="37" viewBox="0 0 29 37" fill="none" xmlns="http://www.w3.org/2000/svg">
<g clip-path="url(#clip0_4_337)">
<path d="M7.5 12.58V36C7.5 36.61 8.18 36.95 8.64 36.57L14.18 31.95C14.54 31.65 15.04 31.65 15.4 31.95L20.94 36.57C21.4 36.95 22.08 36.61 22.08 36V12.58H7.5Z" fill="#B43200"/>
<path d="M7.85986 36.28V13.08H22.2699V36.28C22.2699 36.37 22.2499 36.46 22.2299 36.53C22.0799 36.96 21.5299 37.16 21.1499 36.84L19.4199 35.39L16.8499 33.24L15.6799 32.26C15.3299 31.97 14.8299 31.97 14.4699 32.26L13.2999 33.24L10.7299 35.39L8.99986 36.84C8.52986 37.22 7.85986 36.88 7.85986 36.28Z" fill="#FA3C00"/>
<path d="M16.8403 12.78V33.24L19.4203 35.39V12.78H16.8403Z" fill="white"/>
<path d="M10.7202 12.78V35.39L13.2902 33.24V12.78H10.7202Z" fill="white"/>
<path opacity="0.2" d="M7.85986 14.6V12.85H22.2699V14.54L21.6599 14.63L21.0499 14.72C20.5999 14.79 20.2099 15.08 20.0099 15.51L19.2199 17.17L16.1199 23.71C15.6099 24.78 14.1399 24.78 13.6299 23.71L13.3999 23.22L12.6599 21.67L11.4199 19.05L9.73986 15.5C9.53986 15.07 9.14986 14.78 8.69986 14.71L7.85986 14.6Z" fill="black"/>
<path d="M13.29 1.44998L9.79997 8.79998C9.61997 9.17998 9.26997 9.44998 8.86997 9.50998L1.06997 10.69C0.04997 10.84 -0.36003 12.15 0.37997 12.9L6.01997 18.62C6.30997 18.92 6.44997 19.34 6.37997 19.76L5.04997 27.84C4.87997 28.9 5.93997 29.7 6.84997 29.2L13.83 25.38C14.19 25.18 14.62 25.18 14.99 25.38L21.97 29.2C22.88 29.7 23.95 28.89 23.77 27.84L22.44 19.76C22.37 19.34 22.5 18.91 22.8 18.62L28.44 12.9C29.18 12.15 28.77 10.85 27.75 10.69L19.95 9.50998C19.55 9.44998 19.2 9.17998 19.01 8.79998L15.52 1.44998C15.06 0.48998 13.75 0.48998 13.29 1.44998Z" fill="#DF7135"/>
<path d="M22.9299 17.89C22.6399 18.19 22.4999 18.62 22.5699 19.03L22.6599 19.58L23.3099 23.52L23.8999 27.11C24.0699 28.17 23.0099 28.97 22.0999 28.47L19.7699 27.2L16.8599 25.61L15.1199 24.66C14.7599 24.46 14.3299 24.46 13.9599 24.66L6.97985 28.48C6.80985 28.57 6.63985 28.62 6.46985 28.63C5.71985 28.68 5.02985 27.98 5.16985 27.12L6.49985 19.04C6.56985 18.62 6.43985 18.19 6.13985 17.9L5.51985 17.27L3.80985 15.54L2.81985 14.5L0.509853 12.16C-0.230147 11.41 0.179853 10.11 1.19985 9.96L8.19985 8.9L8.99985 8.78C9.40985 8.72 9.74985 8.45 9.93985 8.07L10.8499 6.15L13.4299 0.72C13.8899 -0.24 15.1999 -0.24 15.6599 0.72L15.7999 1.01L16.4599 2.4L17.5699 4.75L19.1499 8.08C19.3299 8.46 19.6799 8.73 20.0899 8.79L24.8699 9.51L27.8899 9.97C28.9099 10.12 29.3199 11.43 28.5799 12.17L22.9299 17.89Z" fill="#EDA748"/>
<path d="M11.1001 18.19C12.0701 18.85 13.0501 19.17 14.0301 19.17C14.9801 19.17 15.7001 18.66 15.7001 17.8C15.7001 17.04 15.1001 16.49 14.1301 16.49C13.5601 16.49 13.0401 16.61 12.5901 16.84V15.13L14.6601 13.26H11.3701V11.06H17.7701V13.03L15.8701 14.78C16.3701 14.91 16.8501 15.17 17.3701 15.64C17.8901 16.11 18.2401 16.88 18.2401 17.8C18.2401 18.92 17.8501 19.83 17.0601 20.48C16.2901 21.14 15.3201 21.47 14.1601 21.47C13.0001 21.47 11.9901 21.19 11.1101 20.62V18.19H11.1001Z" fill="#DF7135"/>
<path d="M10.8599 17.86C11.8299 18.52 12.8099 18.84 13.7899 18.84C14.7399 18.84 15.4599 18.33 15.4599 17.47C15.4599 16.71 14.8599 16.16 13.8899 16.16C13.3199 16.16 12.7999 16.28 12.3499 16.51V14.8L14.4199 12.93H11.1299V10.73H17.5299V12.7L15.6299 14.45C16.1299 14.58 16.6099 14.84 17.1299 15.31C17.6499 15.78 17.9999 16.55 17.9999 17.47C17.9999 18.59 17.6099 19.5 16.8199 20.15C16.0499 20.81 15.0799 21.14 13.9199 21.14C12.7599 21.14 11.7499 20.86 10.8699 20.29V17.86H10.8599Z" fill="#FFE6AA"/>
<g opacity="0.3">
<path d="M16.3298 3.14003L4.29984 15.49L3.33984 14.53L8.46984 9.26003L9.22984 9.15003C9.61984 9.09003 9.94984 8.84003 10.1198 8.48003L10.9898 6.67003L15.6998 1.84003L16.3298 3.14003Z" fill="white"/>
<path d="M22.8697 23.01L19.4997 26.47L16.7197 24.97L22.2497 19.3L22.8697 23.01Z" fill="white"/>
<path d="M24.3499 9.82004L6.82993 27.8C6.10993 27.84 5.45993 27.19 5.58993 26.38L6.85993 18.78C6.92993 18.39 6.79993 17.98 6.51993 17.7L5.92993 17.11L17.3899 5.35004L18.8999 8.48004C19.0699 8.84004 19.4099 9.09004 19.7899 9.15004L24.3499 9.82004Z" fill="white"/>
</g>
</g>
<defs>
<clipPath id="clip0_4_337">
<rect width="28.95" height="37" fill="white"/>
</clipPath>
</defs>
</svg>
