<svg width="29" height="29" viewBox="0 0 29 29" fill="none" xmlns="http://www.w3.org/2000/svg">
<g clip-path="url(#clip0_36_943)">
<path d="M5.8796 0C6.4496 0.12 6.9896 0.3 7.4396 0.68C7.4996 0.73 7.5696 0.78 7.6296 0.84C8.9096 2.12 10.1996 3.4 11.4796 4.69C12.4296 5.65 12.5896 6.97 11.9196 8.06C11.6196 8.55 11.1996 8.9 10.6496 9.1C9.8596 9.38 9.2496 9.86 8.9196 10.65C8.6896 11.17 8.65961 11.7 8.8096 12.26C9.1896 13.7 9.9796 14.9 10.9396 16.01C12.0896 17.33 13.4096 18.46 14.9996 19.24C15.6596 19.56 16.3396 19.85 17.1096 19.74C18.1196 19.6 18.8896 19.11 19.2896 18.14C19.5496 17.51 19.8696 16.94 20.4796 16.58C21.4796 15.99 22.7396 16.07 23.5996 16.85C24.3796 17.56 25.1196 18.33 25.8696 19.08C26.5496 19.76 27.2596 20.43 27.8996 21.15C28.6996 22.07 28.7296 23.5 28.0196 24.49C27.8696 24.69 27.7096 24.89 27.5396 25.06C26.7896 25.82 26.0096 26.56 25.2796 27.34C24.4996 28.17 23.5296 28.53 22.4196 28.58C21.2296 28.63 20.0896 28.37 18.9796 27.99C16.7896 27.25 14.7996 26.09 12.9296 24.75C9.8196 22.53 7.0996 19.9 4.7496 16.88C3.0196 14.66 1.5396 12.29 0.629604 9.61C0.229604 8.44 -0.0403957 7.25 0.0296043 6C0.0596043 4.92 0.419604 3.97 1.2296 3.2C1.9096 2.55 2.5796 1.89 3.2196 1.21C3.7996 0.61 4.4196 0.11 5.2696 0C5.4696 0 5.6796 0 5.8796 0Z" fill="#515151"/>
</g>
<defs>
<clipPath id="clip0_36_943">
<rect width="28.52" height="28.59" fill="white"/>
</clipPath>
</defs>
</svg>
