<svg width="24" height="24" viewBox="0 0 24 24" fill="none" xmlns="http://www.w3.org/2000/svg">
<path d="M8.25 10.8718C8.25 10.5391 8.3179 10.2096 8.44982 9.90217C8.58173 9.59475 8.77509 9.31543 9.01884 9.08015C9.2626 8.84486 9.55198 8.65822 9.87046 8.53089C10.1889 8.40355 10.5303 8.33801 10.875 8.33801C11.2197 8.33801 11.5611 8.40355 11.8795 8.53089C12.198 8.65822 12.4874 8.84486 12.7312 9.08015C12.9749 9.31543 13.1683 9.59475 13.3002 9.90217C13.4321 10.2096 13.5 10.5391 13.5 10.8718C13.5 11.5438 13.2234 12.1883 12.7312 12.6635C12.2389 13.1387 11.5712 13.4056 10.875 13.4056C10.1788 13.4056 9.51113 13.1387 9.01884 12.6635C8.52656 12.1883 8.25 11.5438 8.25 10.8718Z" fill="#666666"/>
<path fill-rule="evenodd" clip-rule="evenodd" d="M12 2.54651C6.615 2.54651 2.25 6.75985 2.25 11.9578C2.25 17.1557 6.615 21.369 12 21.369C17.385 21.369 21.75 17.1557 21.75 11.9578C21.75 6.75985 17.385 2.54651 12 2.54651ZM10.875 6.89016C10.2286 6.89029 9.59126 7.03705 9.0144 7.31861C8.43755 7.60017 7.93732 8.00864 7.55406 8.5111C7.1708 9.01355 6.91524 9.59591 6.80799 10.2112C6.70074 10.8265 6.7448 11.4575 6.93662 12.0534C7.12843 12.6492 7.46264 13.1932 7.91228 13.6415C8.36192 14.0898 8.91441 14.4298 9.52519 14.6341C10.136 14.8383 10.7879 14.9012 11.4285 14.8176C12.0691 14.734 12.6804 14.5063 13.213 14.1528L15.22 16.0891C15.2887 16.1602 15.3715 16.2172 15.4635 16.2568C15.5555 16.2964 15.6548 16.3176 15.7555 16.3194C15.8562 16.3211 15.9562 16.3032 16.0496 16.2668C16.143 16.2304 16.2278 16.1762 16.299 16.1074C16.3703 16.0387 16.4264 15.9568 16.4641 15.8667C16.5018 15.7765 16.5204 15.68 16.5186 15.5828C16.5168 15.4856 16.4948 15.3897 16.4538 15.3009C16.4128 15.2121 16.3537 15.1322 16.28 15.0659L14.274 13.1286C14.7001 12.5308 14.9488 11.8319 14.9933 11.1075C15.0378 10.3831 14.8764 9.66075 14.5265 9.0185C14.1765 8.37624 13.6514 7.8385 13.0079 7.46339C12.3643 7.08828 11.6268 6.89007 10.875 6.89016Z" fill="#666666"/>
</svg>
