<svg width="29" height="36" viewBox="0 0 29 36" fill="none" xmlns="http://www.w3.org/2000/svg">
<g clip-path="url(#clip0_4_313)">
<path d="M6.84033 11.9801V34.2801C6.84033 34.8601 7.51033 35.1801 7.97033 34.8201L13.4503 30.4201C13.8003 30.1401 14.3103 30.1401 14.6603 30.4201L20.1403 34.8201C20.5903 35.1801 21.2703 34.8601 21.2703 34.2801V11.9801H6.84033Z" fill="#B43200"/>
<path d="M7.19043 34.5401V12.4601H21.4704V34.5401C21.4704 34.6301 21.4504 34.7101 21.4304 34.7801C21.2804 35.1901 20.7404 35.3801 20.3604 35.0701L18.6404 33.6901L16.0904 31.6401L14.9304 30.7101C14.5804 30.4301 14.0804 30.4301 13.7404 30.7101L12.5804 31.6401L10.0304 33.6901L8.31043 35.0701C7.86043 35.4401 7.19043 35.1201 7.19043 34.5401Z" fill="#FA3C00"/>
<path d="M16.0903 12.1602V31.6502L18.6403 33.7002V12.1602H16.0903Z" fill="white"/>
<path d="M10.0303 12.1602V33.7002L12.5803 31.6502V12.1602H10.0303Z" fill="white"/>
<path opacity="0.2" d="M7.19043 13.9001V12.2301H21.4704V13.8401L20.8704 13.9301L20.2604 14.0201C19.8104 14.0901 19.4304 14.3701 19.2304 14.7701L18.4504 16.3501L15.3804 22.5801C14.8804 23.6001 13.4204 23.6001 12.9204 22.5801L12.6904 22.1201L11.9604 20.6401L10.7304 18.1501L9.06043 14.7701C8.86043 14.3601 8.47043 14.0801 8.03043 14.0201L7.19043 13.9001Z" fill="black"/>
<path d="M13.1601 1.38004L9.70011 8.38004C9.53011 8.74004 9.18011 8.99004 8.78011 9.05004L1.05011 10.17C0.0401077 10.32 -0.359892 11.56 0.370108 12.27L5.96011 17.72C6.25011 18 6.38011 18.41 6.31011 18.81L5.00011 26.51C4.83011 27.52 5.88011 28.28 6.79011 27.81L13.7001 24.18C14.0601 23.99 14.4901 23.99 14.8501 24.18L21.7601 27.81C22.6601 28.28 23.7201 27.52 23.5501 26.51L22.2301 18.82C22.1601 18.42 22.2901 18.01 22.5801 17.73L28.1701 12.28C28.9001 11.57 28.5001 10.33 27.4901 10.18L19.7601 9.06004C19.3601 9.00004 19.0101 8.75004 18.8301 8.39004L15.3701 1.39004C14.9201 0.460039 13.6101 0.460039 13.1601 1.38004Z" fill="#808080"/>
<path d="M22.71 17.0301C22.42 17.3101 22.29 17.7201 22.36 18.1201L22.45 18.65L23.09 22.4L23.68 25.82C23.85 26.83 22.8 27.59 21.89 27.1201L19.59 25.91L16.71 24.4L14.98 23.49C14.62 23.3 14.19 23.3 13.83 23.49L6.92001 27.1201C6.76001 27.2101 6.58001 27.25 6.42001 27.26C5.67001 27.3001 5.00001 26.64 5.14001 25.82L6.46001 18.1201C6.53001 17.7201 6.40001 17.3101 6.11001 17.0301L5.49001 16.43L3.80001 14.78L2.80001 13.8L0.52001 11.57C-0.20999 10.86 0.19001 9.62005 1.20001 9.47005L8.14001 8.46005L8.93001 8.34005C9.33001 8.28005 9.68001 8.03005 9.86001 7.67005L10.76 5.84005L13.31 0.670049C13.76 -0.239951 15.07 -0.239951 15.52 0.670049L15.66 0.950049L16.31 2.27005L17.41 4.50005L18.97 7.67005C19.15 8.03005 19.5 8.29005 19.9 8.34005L24.64 9.03005L27.63 9.47005C28.64 9.62005 29.04 10.86 28.31 11.57L22.71 17.0301Z" fill="#CCCCCC"/>
<path d="M10.9102 19.9801V18.1801L13.5302 15.8501C14.7502 14.7501 15.1502 14.1701 15.1502 13.4601C15.1502 12.7901 14.6002 12.3601 13.7802 12.3601C12.9102 12.3601 12.0602 12.7101 11.2402 13.3901V10.8901C12.0202 10.3501 12.9502 10.0701 14.0402 10.0701C15.0002 10.0701 15.8402 10.3501 16.5702 10.9201C17.2902 11.4701 17.6502 12.2201 17.6502 13.1501C17.6502 13.8301 17.5002 14.4401 17.1902 14.9801C16.9002 15.5101 16.3602 16.1201 15.5902 16.8001L14.4102 17.8501H17.9502V19.9701H10.9102V19.9801Z" fill="#808080"/>
<path d="M10.6699 19.67V17.87L13.2899 15.54C14.5099 14.44 14.9099 13.86 14.9099 13.15C14.9099 12.48 14.3599 12.05 13.5399 12.05C12.6699 12.05 11.8199 12.4 10.9999 13.08V10.58C11.7799 10.04 12.7099 9.76001 13.7999 9.76001C14.7599 9.76001 15.5999 10.04 16.3299 10.61C17.0499 11.16 17.4099 11.91 17.4099 12.84C17.4099 13.52 17.2599 14.13 16.9499 14.67C16.6599 15.2 16.1199 15.81 15.3499 16.49L14.1699 17.54H17.7099V19.66H10.6699V19.67Z" fill="#F0F0F0"/>
<g opacity="0.3">
<path d="M16.1701 2.82006L4.28008 14.7501L3.33008 13.8201L8.40008 8.73006L9.15008 8.62006C9.53008 8.56006 9.86008 8.32006 10.0301 7.98006L10.8901 6.23006L15.5501 1.56006L16.1701 2.82006Z" fill="white"/>
<path d="M22.6401 22.0201L19.3001 25.3701L16.5601 23.9201L22.0201 18.4401L22.6401 22.0201Z" fill="white"/>
<path d="M24.1001 9.28007L6.77011 26.6601C6.06011 26.7001 5.42011 26.0701 5.55011 25.2901L6.81011 17.9401C6.88011 17.5601 6.75011 17.1701 6.47011 16.9001L5.88011 16.3301L17.2201 4.95007L18.7101 7.98007C18.8801 8.33007 19.2101 8.57007 19.5901 8.62007L24.1001 9.28007Z" fill="white"/>
</g>
</g>
<defs>
<clipPath id="clip0_4_313">
<rect width="28.67" height="35.23" fill="white"/>
</clipPath>
</defs>
</svg>
