<svg width="22" height="22" viewBox="0 0 22 22" fill="none" xmlns="http://www.w3.org/2000/svg">
<path d="M10.5232 3.20739C10.5619 3.11282 10.628 3.03192 10.7128 2.97498C10.7977 2.91804 10.8976 2.88763 10.9998 2.88763C11.102 2.88763 11.2019 2.91804 11.2868 2.97498C11.3717 3.03192 11.4377 3.11282 11.4765 3.20739L13.4244 7.89247C13.4609 7.98014 13.5208 8.05605 13.5976 8.11184C13.6745 8.16764 13.7652 8.20116 13.8598 8.20872L18.918 8.61389C19.3754 8.65056 19.5606 9.22164 19.2122 9.51956L15.3586 12.8214C15.2866 12.883 15.2329 12.9632 15.2035 13.0533C15.1741 13.1433 15.17 13.2398 15.1917 13.332L16.3697 18.2682C16.3933 18.3673 16.3871 18.4711 16.3518 18.5666C16.3165 18.6621 16.2537 18.745 16.1713 18.8048C16.0889 18.8647 15.9907 18.8988 15.8889 18.9028C15.7872 18.9068 15.6865 18.8805 15.5997 18.8274L11.2684 16.1828C11.1875 16.1334 11.0946 16.1073 10.9998 16.1073C10.9051 16.1073 10.8121 16.1334 10.7312 16.1828L6.39999 18.8283C6.31314 18.8815 6.21249 18.9077 6.11074 18.9037C6.009 18.8997 5.91072 18.8656 5.82833 18.8058C5.74594 18.7459 5.68312 18.663 5.64782 18.5675C5.61252 18.472 5.60632 18.3682 5.62999 18.2691L6.80791 13.332C6.82975 13.2398 6.82574 13.1433 6.7963 13.0532C6.76687 12.9631 6.71316 12.8829 6.64107 12.8214L2.78741 9.51956C2.70981 9.4534 2.65358 9.36571 2.62585 9.26758C2.59813 9.16945 2.60015 9.0653 2.63166 8.96832C2.66317 8.87134 2.72275 8.78589 2.80285 8.72279C2.88296 8.6597 2.97999 8.6218 3.08166 8.61389L8.13983 8.20872C8.23447 8.20116 8.32519 8.16764 8.40202 8.11184C8.47884 8.05605 8.53878 7.98014 8.57524 7.89247L10.5232 3.20739Z" stroke="#9E9E9E" stroke-width="1.5" stroke-linecap="round" stroke-linejoin="round"/>
</svg>
