<svg width="36" height="27" viewBox="0 0 36 27" fill="none" xmlns="http://www.w3.org/2000/svg">
<g clip-path="url(#clip0_36_969)">
<path d="M35.26 7.42999C35.26 12.83 35.26 18.22 35.26 23.62C35.25 23.64 35.23 23.66 35.22 23.68C34.75 25.55 33.62 26.44 31.69 26.44C22.31 26.44 12.94 26.44 3.56 26.44C3.45 26.44 3.33 26.44 3.22 26.44C1.37 26.35 0.01 24.96 0 23.11C0 17.97 0 12.83 0 7.68999C0 7.60999 0.02 7.52999 0.03 7.42999C0.09 7.45999 0.12 7.47999 0.15 7.49999C4.91 10.68 9.67 13.85 14.44 17.03C16.58 18.45 18.69 18.46 20.83 17.03C25.09 14.19 29.34 11.36 33.6 8.51999C34.15 8.13999 34.71 7.78999 35.26 7.42999Z" fill="#515151"/>
<path d="M35.2596 3.71C35.1296 4.06 35.0596 4.45 34.8496 4.75C34.5696 5.16 34.2396 5.57 33.8296 5.84C29.0396 9.06 24.2396 12.26 19.4296 15.45C18.2396 16.24 16.9896 16.23 15.8096 15.45C10.9996 12.25 6.18955 9.04 1.38955 5.83C0.229554 5.06 -0.240446 3.72 0.119554 2.39C0.499554 1.03 1.65955 0.1 3.11955 0.01C3.21955 0 3.31955 0 3.42955 0C12.8996 0 22.3696 0 31.8396 0C33.4096 0 34.6296 0.84 35.0996 2.22C35.1596 2.41 35.2096 2.61 35.2696 2.81C35.2596 3.11 35.2596 3.41 35.2596 3.71Z" fill="#515151"/>
</g>
<defs>
<clipPath id="clip0_36_969">
<rect width="35.26" height="26.42" fill="white"/>
</clipPath>
</defs>
</svg>
