<svg width="37" height="36" viewBox="0 0 37 36" fill="none" xmlns="http://www.w3.org/2000/svg">
<g clip-path="url(#clip0_36_957)">
<path d="M11.3601 22.82C10.9201 19.75 10.9101 16.44 11.3601 13.06C16.0301 13.06 20.7001 13.06 25.4001 13.06C25.8401 16.3 25.8401 19.54 25.4001 22.82C20.7301 22.82 16.0601 22.82 11.3601 22.82Z" fill="#515151"/>
<path d="M11.7803 10.55C12.4503 7.69997 13.3203 4.95997 15.1803 2.64997C15.6903 2.01997 16.2803 1.47997 17.0103 1.09997C17.9703 0.59997 18.9203 0.62997 19.8603 1.14997C20.8103 1.67997 21.5103 2.45997 22.1203 3.34997C23.4703 5.32997 24.2503 7.54997 24.8203 9.84997C24.8703 10.07 24.9203 10.3 24.9803 10.54C20.5803 10.55 16.2103 10.55 11.7803 10.55Z" fill="#515151"/>
<path d="M11.79 25.32C16.2 25.32 20.57 25.32 24.98 25.32C24.49 27.53 23.84 29.66 22.69 31.59C22.22 32.37 21.68 33.13 21.05 33.79C19.32 35.58 17.46 35.58 15.73 33.78C15.07 33.1 14.51 32.3 14.03 31.48C12.9 29.59 12.27 27.5 11.79 25.32Z" fill="#515151"/>
<path d="M27.8799 22.82C28.2799 19.55 28.2799 16.31 27.8799 13.02C28.0199 13.02 28.1399 13.02 28.2699 13.02C30.7599 13.02 33.2399 13.02 35.7299 13.01C35.9999 13.01 36.1199 13.08 36.1899 13.36C36.9599 16.42 36.9599 19.47 36.1699 22.53C36.1199 22.72 36.0799 22.84 35.8299 22.84C33.2399 22.83 30.6499 22.83 28.0599 22.83C28.0099 22.85 27.9599 22.83 27.8799 22.82Z" fill="#515151"/>
<path d="M8.88028 13.05C8.48028 16.31 8.48028 19.56 8.88028 22.85C8.73028 22.85 8.61028 22.85 8.48028 22.85C6.01028 22.85 3.53028 22.85 1.06028 22.86C0.77028 22.86 0.640279 22.8 0.570279 22.5C-0.189721 19.44 -0.199721 16.38 0.590279 13.33C0.640279 13.13 0.700279 13.03 0.940279 13.03C3.52028 13.04 6.09028 13.04 8.67028 13.04C8.73028 13.03 8.79028 13.04 8.88028 13.05Z" fill="#515151"/>
<path d="M22.5107 0.0499878C27.0507 0.489988 34.1607 6.39999 35.1507 10.56C32.6107 10.56 30.0807 10.56 27.5007 10.56C26.6407 6.68999 25.4407 2.95999 22.5107 0.0499878Z" fill="#515151"/>
<path d="M14.3003 0C11.3203 2.96 10.1303 6.67 9.26031 10.55C6.71031 10.55 4.16031 10.55 1.57031 10.55C2.76031 7.85 4.48031 5.59 6.73031 3.73C8.93031 1.91 11.4203 0.68 14.3003 0Z" fill="#515151"/>
<path d="M22.5205 35.82C25.4405 32.91 26.6405 29.2 27.5105 25.32C30.0605 25.32 32.6105 25.32 35.1605 25.32C34.1605 29.47 26.9505 35.47 22.5205 35.82Z" fill="#515151"/>
<path d="M14.2806 35.82C9.82059 35.48 2.97059 29.79 1.60059 25.33C4.15059 25.33 6.70059 25.33 9.27059 25.33C9.66059 27.25 10.1906 29.14 10.9906 30.95C11.7806 32.76 12.7906 34.43 14.2806 35.82Z" fill="#515151"/>
</g>
<defs>
<clipPath id="clip0_36_957">
<rect width="36.76" height="35.82" fill="white"/>
</clipPath>
</defs>
</svg>
