<svg width="48" height="46" viewBox="0 0 48 46" fill="none" xmlns="http://www.w3.org/2000/svg">
<path d="M31.6801 13.4608C31.6801 13.7208 31.6801 13.9408 31.6801 14.1608C31.6801 17.0708 31.6701 19.9908 31.6901 22.9008C31.6901 23.3808 31.5301 23.6708 31.1601 23.9508C29.8101 24.9508 28.5001 26.0008 27.1401 26.9908C26.8701 27.1908 26.4901 27.3208 26.1601 27.3208C20.9801 27.3408 15.8001 27.3308 10.6101 27.3408C10.4101 27.3408 10.1501 27.2808 10.0201 27.3708C9.78008 27.5408 9.47008 27.8008 9.46008 28.0308C9.45008 28.2708 9.74008 28.5608 9.97008 28.7408C10.1001 28.8408 10.3601 28.7908 10.5601 28.7908C15.0101 28.7908 19.4701 28.7908 23.9201 28.7908C24.1401 28.7908 24.3601 28.7908 24.7101 28.7908C24.5301 28.9608 24.4401 29.0708 24.3201 29.1608C23.3701 29.8908 22.3401 30.5308 21.5001 31.3608C20.9201 31.9408 20.3301 31.9808 19.6301 31.9708C16.9401 31.9508 14.2501 31.9608 11.5501 31.9608C11.3701 31.9608 11.1801 31.9408 11.0001 31.9708C10.5901 32.0508 10.2801 32.3208 10.4001 32.7208C10.4701 32.9808 10.7801 33.2308 11.0401 33.3808C11.2301 33.4808 11.5101 33.4108 11.7601 33.4108C14.3501 33.4108 16.9401 33.4108 19.5301 33.4108C19.7301 33.4108 19.9201 33.4108 20.2101 33.4108C19.9601 33.9208 19.7601 34.3508 19.5501 34.7808C19.1301 35.6308 18.7001 36.4808 18.3001 37.3408C17.9701 38.0408 18.3501 38.5608 19.1201 38.4808C20.1901 38.3708 21.2501 38.2208 22.3101 38.0808C23.0101 37.9908 23.7101 37.8408 24.4201 37.8208C25.3801 37.7908 26.1401 37.4008 26.8701 36.8008C28.2501 35.6808 29.6901 34.6308 31.1101 33.5508C31.2701 33.4308 31.4301 33.3208 31.6501 33.1608C31.6501 37.4008 31.6501 41.5608 31.6501 45.7508C23.6301 45.7508 15.6201 45.7508 7.58008 45.7508C7.58008 34.9808 7.58008 24.2208 7.58008 13.4208C15.6101 13.4608 23.6201 13.4608 31.6801 13.4608ZM18.9101 24.3608C21.7601 24.3608 24.6101 24.3608 27.4601 24.3608C28.1001 24.3608 28.4501 24.0908 28.4401 23.6308C28.4301 23.1708 28.0801 22.9208 27.4401 22.9008C27.3801 22.9008 27.3201 22.9008 27.2601 22.9008C21.7001 22.9008 16.1401 22.9008 10.5801 22.9008C10.3601 22.9008 10.0901 22.8608 9.93008 22.9708C9.71008 23.1308 9.43008 23.4308 9.46008 23.6308C9.49008 23.8808 9.77008 24.1308 10.0101 24.3008C10.1501 24.4008 10.4001 24.3408 10.6001 24.3408C13.3701 24.3608 16.1401 24.3608 18.9101 24.3608ZM17.7701 41.9408C19.5101 41.9408 21.2501 41.9408 22.9901 41.9408C23.1901 41.9408 23.4701 41.9708 23.5701 41.8608C23.7601 41.6508 23.9801 41.3408 23.9701 41.0708C23.9501 40.6108 23.5601 40.4808 23.1301 40.4808C20.9901 40.4808 18.8401 40.4808 16.7001 40.4808C15.2601 40.4808 13.8301 40.4708 12.3901 40.4808C11.7701 40.4808 11.4101 40.8808 11.5401 41.3808C11.6601 41.8308 12.0001 41.9408 12.4301 41.9408C14.2101 41.9408 15.9901 41.9408 17.7701 41.9408ZM15.3701 18.3908C17.0301 18.3908 18.6801 18.3908 20.3401 18.3908C21.0101 18.3908 21.3201 18.1508 21.3201 17.6708C21.3201 17.1908 21.0001 16.9308 20.3501 16.9308C17.0401 16.9308 13.7201 16.9308 10.4101 16.9308C9.77008 16.9308 9.42008 17.1908 9.42008 17.6608C9.42008 18.1308 9.75008 18.3808 10.4001 18.3908C12.0601 18.4008 13.7101 18.3908 15.3701 18.3908ZM25.9501 18.3908C26.5201 18.3908 27.0801 18.3908 27.6501 18.3908C28.1101 18.3908 28.4001 18.1508 28.4101 17.7008C28.4301 17.2208 28.1201 16.9508 27.6401 16.9408C26.5101 16.9208 25.3701 16.9208 24.2401 16.9408C23.7801 16.9508 23.4601 17.1908 23.4801 17.7008C23.5001 18.1708 23.8001 18.3808 24.2401 18.3908C24.8201 18.4008 25.3801 18.3908 25.9501 18.3908Z" fill="#0487D9"/>
<path d="M0 42.2509C0 29.2909 0 16.3709 0 3.41089C1.18 3.41089 2.33 3.41089 3.55 3.41089C3.55 3.67089 3.56 3.91089 3.55 4.14089C3.5 4.95089 3.89 5.51089 4.58 5.84089C5.86 6.46089 7.17 6.44089 8.44 5.81089C9.11 5.48089 9.48 4.92089 9.42 4.14089C9.4 3.92089 9.42 3.70089 9.42 3.43089C11.26 3.43089 13.07 3.43089 14.94 3.43089C14.99 4.21089 14.83 5.07089 15.62 5.63089C16.34 6.13089 17.13 6.29089 17.98 6.28089C18.78 6.26089 19.54 6.09089 20.2 5.59089C20.95 5.03089 20.81 4.20089 20.84 3.41089C22.69 3.41089 24.48 3.41089 26.35 3.41089C26.35 3.68089 26.36 3.91089 26.35 4.15089C26.31 4.95089 26.69 5.52089 27.39 5.85089C28.67 6.46089 29.98 6.44089 31.25 5.82089C31.92 5.49089 32.28 4.93089 32.24 4.15089C32.23 3.93089 32.24 3.71089 32.24 3.44089C33.41 3.44089 34.55 3.44089 35.8 3.44089C35.8 3.63089 35.8 3.85089 35.8 4.06089C35.8 9.32089 35.79 14.5909 35.81 19.8509C35.81 20.2809 35.68 20.5609 35.33 20.8009C34.62 21.3009 33.95 21.8409 33.14 22.4509C33.14 22.1109 33.14 21.9009 33.14 21.6809C33.14 17.7309 33.14 13.7909 33.14 9.84089C33.14 8.84089 32.97 8.67089 31.98 8.67089C22.59 8.67089 13.2 8.67089 3.8 8.67089C2.8 8.67089 2.62 8.86089 2.62 9.89089C2.62 20.4209 2.62 30.9409 2.62 41.4709C2.62 41.7309 2.62 41.9809 2.62 42.2709C1.71 42.2509 0.87 42.2509 0 42.2509Z" fill="#0487D9"/>
<path d="M20.1797 36.8308C20.8897 35.3908 21.5597 34.0208 22.2497 32.6508C22.3397 32.4808 22.5297 32.3608 22.6797 32.2408C29.5597 26.9908 36.4497 21.7308 43.3397 16.4808C44.4097 15.6708 45.3997 15.8108 46.2297 16.8808C46.3497 17.0408 46.4797 17.2008 46.5997 17.3608C47.3897 18.4108 47.2597 19.4108 46.2197 20.2108C43.8097 22.0608 41.3997 23.9008 38.9797 25.7408C34.5397 29.1308 30.1097 32.5208 25.6497 35.8908C25.2897 36.1608 24.7797 36.2908 24.3197 36.3608C23.1197 36.5508 21.9197 36.6808 20.7097 36.8308C20.5697 36.8408 20.4097 36.8308 20.1797 36.8308Z" fill="#0487D9"/>
<path d="M4.13965 13.4908C4.78965 13.4908 5.40965 13.4908 6.05965 13.4908C6.05965 24.2708 6.05965 35.0108 6.05965 45.7908C5.41965 45.7908 4.79965 45.7908 4.13965 45.7908C4.13965 35.0308 4.13965 24.2808 4.13965 13.4908Z" fill="#0487D9"/>
<path d="M31.6601 10.1509C31.6601 10.7309 31.6601 11.3109 31.6601 11.9409C23.6401 11.9409 15.6201 11.9409 7.58008 11.9409C7.58008 11.3409 7.58008 10.7609 7.58008 10.1509C15.6201 10.1509 23.6201 10.1509 31.6601 10.1509Z" fill="#0487D9"/>
<path d="M35.7499 42.2609C34.8699 42.2609 34.0399 42.2609 33.1399 42.2609C33.1399 42.0209 33.1399 41.8009 33.1399 41.5909C33.1399 38.6009 33.1499 35.6109 33.1299 32.6209C33.1299 32.1909 33.2599 31.9109 33.6099 31.6709C34.3099 31.1709 34.9899 30.6409 35.7499 30.0609C35.7499 34.1709 35.7499 38.1909 35.7499 42.2609Z" fill="#0487D9"/>
<path d="M5.02042 2.39086C5.02042 1.91086 5.06042 1.42086 5.01042 0.940863C4.96042 0.430863 5.20042 0.190863 5.66042 0.110863C5.99042 0.0508631 6.33042 0.000863076 6.67042 0.0108631C7.78042 0.0308631 7.98042 0.260863 7.98042 1.36086C7.98042 2.23086 7.96042 3.10086 7.99042 3.96086C8.00042 4.36086 7.85042 4.58086 7.48042 4.65086C7.15042 4.72086 6.81042 4.80086 6.47042 4.80086C5.24042 4.81086 5.02042 4.59086 5.02042 3.36086C5.02042 3.04086 5.02042 2.72086 5.02042 2.39086Z" fill="#0487D9"/>
<path d="M16.4198 2.39087C16.4198 1.87087 16.4398 1.34087 16.4098 0.820869C16.3898 0.440869 16.5598 0.230869 16.8898 0.170869C17.2998 0.090869 17.7198 0.010869 18.1398 0.020869C19.1898 0.040869 19.3798 0.270869 19.3798 1.30087C19.3798 2.17087 19.3498 3.04087 19.3898 3.90087C19.4098 4.36087 19.2298 4.59087 18.8198 4.67087C18.5098 4.73087 18.1798 4.80087 17.8698 4.80087C16.6298 4.80087 16.4198 4.58087 16.4198 3.36087C16.4198 3.04087 16.4198 2.71087 16.4198 2.39087Z" fill="#0487D9"/>
<path d="M30.8003 2.44085C30.8003 2.94085 30.7703 3.45085 30.8103 3.95085C30.8403 4.35085 30.6703 4.57085 30.3103 4.64085C29.9803 4.71085 29.6403 4.79085 29.3003 4.79085C28.0603 4.80085 27.8503 4.57085 27.8503 3.35085C27.8503 2.50085 27.8703 1.65085 27.8403 0.810849C27.8303 0.440849 27.9803 0.220849 28.3103 0.150849C28.7203 0.0708494 29.1503 -0.00915055 29.5603 0.000849447C30.6103 0.0208494 30.8003 0.250849 30.8003 1.28085C30.8003 1.68085 30.8003 2.06085 30.8003 2.44085Z" fill="#0487D9"/>
<path d="M4.09961 11.9508C4.09961 11.3408 4.09961 10.7808 4.09961 10.1708C4.73961 10.1708 5.36961 10.1708 6.02961 10.1708C6.02961 10.7608 6.02961 11.3308 6.02961 11.9508C5.39961 11.9508 4.78961 11.9508 4.09961 11.9508Z" fill="#0487D9"/>
</svg>
