<svg width="29" height="36" viewBox="0 0 29 36" fill="none" xmlns="http://www.w3.org/2000/svg">
<g clip-path="url(#clip0_4_364)">
<path d="M7.16016 12.12V34.68C7.16016 35.27 7.84016 35.59 8.30016 35.23L13.8502 30.78C14.2102 30.49 14.7202 30.49 15.0702 30.78L20.6202 35.23C21.0802 35.6 21.7602 35.27 21.7602 34.68V12.12H7.16016Z" fill="#B42D00"/>
<path d="M7.52002 34.95V12.6H21.97V34.94C21.97 35.03 21.95 35.11 21.93 35.18C21.77 35.6 21.23 35.78 20.85 35.48L19.11 34.08L16.53 32.01L15.36 31.07C15.01 30.79 14.5 30.79 14.15 31.07L12.98 32.01L10.4 34.08L8.66002 35.48C8.19002 35.85 7.52002 35.53 7.52002 34.95Z" fill="#FA3400"/>
<path d="M16.5205 12.3099V32.0199L19.1005 34.0899V12.3099H16.5205Z" fill="white"/>
<path d="M10.3804 12.3099V34.0899L12.9604 32.0199V12.3099H10.3804Z" fill="white"/>
<path opacity="0.2" d="M7.52002 14.07V12.38H21.97V14.01L21.36 14.1L20.74 14.19C20.29 14.26 19.9 14.54 19.69 14.95L18.9 16.55L15.79 22.85C15.28 23.88 13.81 23.88 13.3 22.85L13.07 22.38L12.33 20.89L11.09 18.37L9.40002 14.95C9.20002 14.54 8.81002 14.26 8.35002 14.19L7.52002 14.07Z" fill="black"/>
<path d="M13.32 1.39989L9.81997 8.47989C9.63997 8.84989 9.28997 9.09989 8.87997 9.15989L1.06997 10.2999C0.04997 10.4499 -0.36003 11.6999 0.37997 12.4199L6.03997 17.9299C6.32997 18.2199 6.46997 18.6299 6.39997 19.0299L5.05997 26.8199C4.88997 27.8399 5.94997 28.6099 6.86997 28.1299L13.86 24.4499C14.22 24.2599 14.66 24.2599 15.02 24.4499L22.01 28.1299C22.92 28.6099 23.99 27.8299 23.82 26.8199L22.48 19.0299C22.41 18.6299 22.54 18.2099 22.84 17.9299L28.5 12.4199C29.24 11.6999 28.83 10.4399 27.81 10.2999L19.99 9.15989C19.58 9.09989 19.23 8.84989 19.05 8.47989L15.55 1.39989C15.09 0.469893 13.77 0.469893 13.32 1.39989Z" fill="#F0A50A"/>
<path d="M22.9801 17.2299C22.6901 17.5199 22.5501 17.9299 22.6201 18.3299L22.7401 19.0499L23.3901 22.8399L23.9501 26.1199C24.1201 27.1399 23.0601 27.9099 22.1401 27.4299L19.9501 26.2799L17.0401 24.7499L15.1501 23.7599C14.7901 23.5699 14.3501 23.5699 13.9901 23.7599L7.00011 27.4299C6.92011 27.4699 6.83011 27.5099 6.75011 27.5299C5.90011 27.7699 5.04011 27.0399 5.20011 26.1199L6.54011 18.3299C6.61011 17.9299 6.48011 17.5099 6.18011 17.2299L5.66011 16.7299L3.95011 15.0599L2.94011 14.0699L0.520107 11.7099C-0.219893 10.9999 0.190107 9.73994 1.21011 9.59994L8.48011 8.53994L9.03011 8.45994C9.43011 8.39994 9.79011 8.14994 9.97011 7.77994L10.6801 6.34994L13.4701 0.699941C13.9301 -0.230059 15.2501 -0.230059 15.7001 0.699941L15.9101 1.11994L16.5701 2.45994L17.6901 4.71994L19.2001 7.77994C19.3801 8.14994 19.7301 8.39994 20.1401 8.45994L25.1201 9.17994L27.9601 9.58994C28.9801 9.73994 29.3901 10.9899 28.6501 11.7099L22.9801 17.2299Z" fill="#FFE961"/>
<path d="M13.57 20.3799V12.9299L11.48 13.8899V11.3599L13.87 10.1499H16.15V20.3699H13.57V20.3799Z" fill="#F0901E"/>
<path d="M13.3 20.1099V12.6599L11.21 13.6199V11.0999L13.6 9.88989H15.88V20.1099H13.3Z" fill="#FFFEC8"/>
<g opacity="0.3">
<path d="M16.3999 3.25L4.57988 15.02L3.62988 14.1L8.81988 8.94L9.33988 8.86C9.71988 8.8 10.0499 8.57 10.2199 8.22L10.8799 6.88L15.7799 2L16.3999 3.25Z" fill="white"/>
<path d="M22.8101 22.27L19.5901 25.48L16.8501 24.05L22.2001 18.73L22.8101 22.27Z" fill="white"/>
<path d="M24.4101 9.52998L7.20006 26.65C6.41006 26.87 5.59006 26.19 5.74006 25.33L7.00006 18.07C7.07006 17.69 6.94006 17.31 6.66006 17.04L6.18006 16.57L17.4501 5.35999L18.8701 8.21999C19.0401 8.55999 19.3701 8.79998 19.7501 8.85998L24.4101 9.52998Z" fill="white"/>
</g>
</g>
<defs>
<clipPath id="clip0_4_364">
<rect width="29.01" height="35.64" fill="white"/>
</clipPath>
</defs>
</svg>
